<mxfile host="app.diagrams.net" modified="2023-09-05T09:12:02.820Z" agent="Mozilla/5.0 (Windows NT 10.0; Win64; x64; rv:109.0) Gecko/20100101 Firefox/117.0" etag="z8uLvXZwA2wO1jcJ2mFa" version="21.7.2" type="github">
  <diagram name="Page-1" id="ULckoyat54zV__HIXDZd">
    <mxGraphModel dx="4014" dy="2845" grid="1" gridSize="10" guides="1" tooltips="1" connect="1" arrows="1" fold="1" page="1" pageScale="1" pageWidth="827" pageHeight="1169" math="0" shadow="0">
      <root>
        <mxCell id="0" />
        <mxCell id="1" parent="0" />
        <mxCell id="v4-6-bHVS8jRS0BCCZuM-1" value="" style="rounded=0;whiteSpace=wrap;html=1;fillColor=#f5f5f5;fontColor=#333333;strokeColor=#666666;" vertex="1" parent="1">
          <mxGeometry x="-270" y="260" width="1380" height="560" as="geometry" />
        </mxCell>
        <mxCell id="v4-6-bHVS8jRS0BCCZuM-78" value="" style="rounded=0;whiteSpace=wrap;html=1;fillColor=#e1d5e7;strokeColor=#9673a6;" vertex="1" parent="1">
          <mxGeometry x="733.75" y="770" width="350" height="170" as="geometry" />
        </mxCell>
        <mxCell id="v4-6-bHVS8jRS0BCCZuM-76" value="" style="rounded=0;whiteSpace=wrap;html=1;fillColor=#e1d5e7;strokeColor=#9673a6;" vertex="1" parent="1">
          <mxGeometry x="220" y="760" width="380" height="170" as="geometry" />
        </mxCell>
        <mxCell id="v4-6-bHVS8jRS0BCCZuM-74" value="" style="rounded=0;whiteSpace=wrap;html=1;fillColor=#e1d5e7;strokeColor=#9673a6;" vertex="1" parent="1">
          <mxGeometry x="220" y="100" width="380" height="200" as="geometry" />
        </mxCell>
        <mxCell id="v4-6-bHVS8jRS0BCCZuM-73" value="" style="rounded=0;whiteSpace=wrap;html=1;fillColor=#e1d5e7;strokeColor=#9673a6;" vertex="1" parent="1">
          <mxGeometry x="-240" y="770" width="350" height="170" as="geometry" />
        </mxCell>
        <mxCell id="v4-6-bHVS8jRS0BCCZuM-2" style="rounded=0;orthogonalLoop=1;jettySize=auto;html=1;entryX=0.5;entryY=0;entryDx=0;entryDy=0;strokeWidth=9;endArrow=none;endFill=0;strokeColor=#97D077;exitX=0.5;exitY=1;exitDx=0;exitDy=0;fontSize=42;" edge="1" parent="1" source="v4-6-bHVS8jRS0BCCZuM-21" target="v4-6-bHVS8jRS0BCCZuM-25">
          <mxGeometry relative="1" as="geometry">
            <mxPoint x="301.723129865135" y="459.2871604698528" as="sourcePoint" />
            <mxPoint x="260" y="600" as="targetPoint" />
          </mxGeometry>
        </mxCell>
        <mxCell id="v4-6-bHVS8jRS0BCCZuM-3" style="rounded=0;orthogonalLoop=1;jettySize=auto;html=1;exitX=0.5;exitY=1;exitDx=0;exitDy=0;entryX=0.5;entryY=0;entryDx=0;entryDy=0;strokeWidth=9;endArrow=none;endFill=0;strokeColor=#97D077;fontSize=42;" edge="1" parent="1" source="v4-6-bHVS8jRS0BCCZuM-23" target="v4-6-bHVS8jRS0BCCZuM-45">
          <mxGeometry relative="1" as="geometry">
            <mxPoint x="-270" y="675" as="sourcePoint" />
          </mxGeometry>
        </mxCell>
        <mxCell id="v4-6-bHVS8jRS0BCCZuM-4" style="rounded=0;orthogonalLoop=1;jettySize=auto;html=1;exitX=0.5;exitY=1;exitDx=0;exitDy=0;strokeWidth=9;endArrow=none;endFill=0;strokeColor=#FFB366;entryX=0.5;entryY=0;entryDx=0;entryDy=0;fontSize=42;" edge="1" parent="1" source="v4-6-bHVS8jRS0BCCZuM-24" target="v4-6-bHVS8jRS0BCCZuM-46">
          <mxGeometry relative="1" as="geometry">
            <mxPoint x="-140" y="739.9999999999998" as="targetPoint" />
            <mxPoint x="-5" y="670" as="sourcePoint" />
          </mxGeometry>
        </mxCell>
        <mxCell id="v4-6-bHVS8jRS0BCCZuM-5" style="rounded=0;orthogonalLoop=1;jettySize=auto;html=1;strokeWidth=9;endArrow=none;endFill=0;strokeColor=#97D077;exitX=0.5;exitY=1;exitDx=0;exitDy=0;fontSize=42;" edge="1" parent="1" source="v4-6-bHVS8jRS0BCCZuM-28" target="v4-6-bHVS8jRS0BCCZuM-49">
          <mxGeometry relative="1" as="geometry">
            <mxPoint x="830.0745845066776" y="664.7696913478178" as="sourcePoint" />
          </mxGeometry>
        </mxCell>
        <mxCell id="v4-6-bHVS8jRS0BCCZuM-6" style="rounded=0;orthogonalLoop=1;jettySize=auto;html=1;strokeWidth=9;endArrow=none;endFill=0;strokeColor=#FFB366;exitX=0.5;exitY=1;exitDx=0;exitDy=0;fontSize=42;" edge="1" parent="1" source="v4-6-bHVS8jRS0BCCZuM-29" target="v4-6-bHVS8jRS0BCCZuM-50">
          <mxGeometry relative="1" as="geometry">
            <mxPoint x="1021.755390543969" y="662.8825756728002" as="sourcePoint" />
          </mxGeometry>
        </mxCell>
        <mxCell id="v4-6-bHVS8jRS0BCCZuM-7" value="LB" style="rounded=0;whiteSpace=wrap;html=1;fontStyle=1;fontSize=42;" vertex="1" parent="1">
          <mxGeometry x="374" y="889" width="80" height="50" as="geometry" />
        </mxCell>
        <mxCell id="v4-6-bHVS8jRS0BCCZuM-8" value="LB" style="rounded=0;whiteSpace=wrap;html=1;fontStyle=1;fontSize=42;" vertex="1" parent="1">
          <mxGeometry x="880" y="889" width="80" height="50" as="geometry" />
        </mxCell>
        <mxCell id="v4-6-bHVS8jRS0BCCZuM-9" value="Local network" style="ellipse;whiteSpace=wrap;html=1;fontStyle=1;fontSize=42;strokeWidth=3;" vertex="1" parent="1">
          <mxGeometry x="-179" y="939" width="200" height="140" as="geometry" />
        </mxCell>
        <mxCell id="v4-6-bHVS8jRS0BCCZuM-10" value="Local network" style="ellipse;whiteSpace=wrap;html=1;fontStyle=1;fontSize=42;" vertex="1" parent="1">
          <mxGeometry x="310" y="939" width="200" height="140" as="geometry" />
        </mxCell>
        <mxCell id="v4-6-bHVS8jRS0BCCZuM-11" value="Local network" style="ellipse;whiteSpace=wrap;html=1;fontStyle=1;fontSize=42;" vertex="1" parent="1">
          <mxGeometry x="820" y="939" width="200" height="140" as="geometry" />
        </mxCell>
        <mxCell id="v4-6-bHVS8jRS0BCCZuM-12" style="rounded=0;orthogonalLoop=1;jettySize=auto;html=1;exitX=0.5;exitY=1;exitDx=0;exitDy=0;entryX=0.5;entryY=0;entryDx=0;entryDy=0;strokeWidth=9;endArrow=none;endFill=0;strokeColor=#97D077;fontSize=42;" edge="1" parent="1" source="v4-6-bHVS8jRS0BCCZuM-26" target="v4-6-bHVS8jRS0BCCZuM-60">
          <mxGeometry relative="1" as="geometry">
            <mxPoint x="410" y="310" as="sourcePoint" />
            <mxPoint x="260" y="360" as="targetPoint" />
          </mxGeometry>
        </mxCell>
        <mxCell id="v4-6-bHVS8jRS0BCCZuM-13" style="rounded=0;orthogonalLoop=1;jettySize=auto;html=1;exitX=0.5;exitY=1;exitDx=0;exitDy=0;entryX=0.5;entryY=0;entryDx=0;entryDy=0;strokeWidth=9;endArrow=none;endFill=0;strokeColor=#FFB366;fontSize=42;" edge="1" parent="1" source="v4-6-bHVS8jRS0BCCZuM-26" target="v4-6-bHVS8jRS0BCCZuM-61">
          <mxGeometry relative="1" as="geometry">
            <mxPoint x="410" y="310" as="sourcePoint" />
            <mxPoint x="525" y="365" as="targetPoint" />
          </mxGeometry>
        </mxCell>
        <mxCell id="v4-6-bHVS8jRS0BCCZuM-14" style="rounded=0;orthogonalLoop=1;jettySize=auto;html=1;entryX=0.5;entryY=0;entryDx=0;entryDy=0;strokeWidth=9;endArrow=none;endFill=0;strokeColor=#97D077;exitX=0.5;exitY=1;exitDx=0;exitDy=0;fontSize=42;" edge="1" parent="1" source="v4-6-bHVS8jRS0BCCZuM-21" target="v4-6-bHVS8jRS0BCCZuM-23">
          <mxGeometry relative="1" as="geometry">
            <mxPoint x="260" y="460" as="sourcePoint" />
            <mxPoint x="-270" y="595" as="targetPoint" />
          </mxGeometry>
        </mxCell>
        <mxCell id="v4-6-bHVS8jRS0BCCZuM-15" style="rounded=0;orthogonalLoop=1;jettySize=auto;html=1;exitX=0.5;exitY=1;exitDx=0;exitDy=0;entryX=0.569;entryY=0.005;entryDx=0;entryDy=0;strokeWidth=9;endArrow=none;endFill=0;strokeColor=#FFB366;entryPerimeter=0;fontSize=42;" edge="1" parent="1" source="v4-6-bHVS8jRS0BCCZuM-22" target="v4-6-bHVS8jRS0BCCZuM-24">
          <mxGeometry relative="1" as="geometry">
            <mxPoint x="525" y="435" as="sourcePoint" />
            <mxPoint x="-5" y="600" as="targetPoint" />
          </mxGeometry>
        </mxCell>
        <mxCell id="v4-6-bHVS8jRS0BCCZuM-16" style="rounded=0;orthogonalLoop=1;jettySize=auto;html=1;strokeWidth=9;endArrow=none;endFill=0;entryX=0.5;entryY=0;entryDx=0;entryDy=0;exitX=0.5;exitY=1;exitDx=0;exitDy=0;strokeColor=#97D077;fontSize=42;" edge="1" parent="1" source="v4-6-bHVS8jRS0BCCZuM-21" target="v4-6-bHVS8jRS0BCCZuM-28">
          <mxGeometry relative="1" as="geometry">
            <mxPoint x="313" y="460" as="sourcePoint" />
            <mxPoint x="790" y="595" as="targetPoint" />
          </mxGeometry>
        </mxCell>
        <mxCell id="v4-6-bHVS8jRS0BCCZuM-17" style="rounded=0;orthogonalLoop=1;jettySize=auto;html=1;exitX=0.5;exitY=1;exitDx=0;exitDy=0;strokeWidth=9;endArrow=none;endFill=0;entryX=0.5;entryY=0;entryDx=0;entryDy=0;strokeColor=#FFB366;fontSize=42;" edge="1" parent="1" source="v4-6-bHVS8jRS0BCCZuM-22" target="v4-6-bHVS8jRS0BCCZuM-29">
          <mxGeometry relative="1" as="geometry">
            <mxPoint x="525" y="435" as="sourcePoint" />
            <mxPoint x="1055" y="600" as="targetPoint" />
          </mxGeometry>
        </mxCell>
        <mxCell id="v4-6-bHVS8jRS0BCCZuM-18" style="rounded=0;orthogonalLoop=1;jettySize=auto;html=1;strokeWidth=9;endArrow=none;endFill=0;exitX=0.5;exitY=1;exitDx=0;exitDy=0;strokeColor=#FFB366;fontSize=42;" edge="1" parent="1" source="v4-6-bHVS8jRS0BCCZuM-22" target="v4-6-bHVS8jRS0BCCZuM-27">
          <mxGeometry relative="1" as="geometry">
            <mxPoint x="525" y="435" as="sourcePoint" />
            <mxPoint x="525" y="605" as="targetPoint" />
          </mxGeometry>
        </mxCell>
        <mxCell id="v4-6-bHVS8jRS0BCCZuM-19" style="rounded=0;orthogonalLoop=1;jettySize=auto;html=1;exitX=0.5;exitY=1;exitDx=0;exitDy=0;strokeWidth=9;endArrow=none;endFill=0;strokeColor=#97D077;entryX=0.5;entryY=0;entryDx=0;entryDy=0;fontSize=42;" edge="1" parent="1" source="v4-6-bHVS8jRS0BCCZuM-25" target="v4-6-bHVS8jRS0BCCZuM-47">
          <mxGeometry relative="1" as="geometry">
            <mxPoint x="260" y="680" as="sourcePoint" />
            <mxPoint x="340" y="740" as="targetPoint" />
          </mxGeometry>
        </mxCell>
        <mxCell id="v4-6-bHVS8jRS0BCCZuM-20" style="rounded=0;orthogonalLoop=1;jettySize=auto;html=1;entryX=0.5;entryY=0;entryDx=0;entryDy=0;strokeWidth=9;endArrow=none;endFill=0;exitX=0.5;exitY=1;exitDx=0;exitDy=0;strokeColor=#FFB366;fontSize=42;" edge="1" parent="1" source="v4-6-bHVS8jRS0BCCZuM-27" target="v4-6-bHVS8jRS0BCCZuM-48">
          <mxGeometry relative="1" as="geometry">
            <mxPoint x="493" y="669" as="sourcePoint" />
            <mxPoint x="414" y="740" as="targetPoint" />
          </mxGeometry>
        </mxCell>
        <mxCell id="v4-6-bHVS8jRS0BCCZuM-21" value="1" style="ellipse;whiteSpace=wrap;html=1;fontStyle=1;fontSize=42;strokeWidth=3;fillColor=#d5e8d4;strokeColor=#82b366;" vertex="1" parent="1">
          <mxGeometry x="205" y="360" width="160" height="110" as="geometry" />
        </mxCell>
        <mxCell id="v4-6-bHVS8jRS0BCCZuM-22" value="2" style="ellipse;whiteSpace=wrap;html=1;fontStyle=1;fontSize=42;strokeWidth=3;fillColor=#fff2cc;strokeColor=#d6b656;" vertex="1" parent="1">
          <mxGeometry x="460" y="360" width="160" height="110" as="geometry" />
        </mxCell>
        <mxCell id="v4-6-bHVS8jRS0BCCZuM-23" value="3" style="ellipse;whiteSpace=wrap;html=1;fontStyle=1;fontSize=42;strokeWidth=3;fillColor=#d5e8d4;strokeColor=#82b366;" vertex="1" parent="1">
          <mxGeometry x="-260" y="585" width="160" height="105" as="geometry" />
        </mxCell>
        <mxCell id="v4-6-bHVS8jRS0BCCZuM-24" value="4" style="ellipse;whiteSpace=wrap;html=1;fontStyle=1;fontSize=42;strokeWidth=3;fillColor=#fff2cc;strokeColor=#d6b656;" vertex="1" parent="1">
          <mxGeometry x="-30" y="583.75" width="160" height="107.5" as="geometry" />
        </mxCell>
        <mxCell id="v4-6-bHVS8jRS0BCCZuM-25" value="5" style="ellipse;whiteSpace=wrap;html=1;fontStyle=1;fontSize=42;strokeWidth=3;fillColor=#d5e8d4;strokeColor=#82b366;" vertex="1" parent="1">
          <mxGeometry x="200" y="585" width="160" height="105" as="geometry" />
        </mxCell>
        <mxCell id="v4-6-bHVS8jRS0BCCZuM-26" value="LB" style="rounded=0;whiteSpace=wrap;html=1;fontStyle=1;fontSize=42;strokeWidth=3;fillColor=#f8cecc;strokeColor=#b85450;" vertex="1" parent="1">
          <mxGeometry x="365" y="105" width="110" height="70" as="geometry" />
        </mxCell>
        <mxCell id="v4-6-bHVS8jRS0BCCZuM-27" value="6" style="ellipse;whiteSpace=wrap;html=1;fontStyle=1;fontSize=42;strokeWidth=3;fillColor=#fff2cc;strokeColor=#d6b656;" vertex="1" parent="1">
          <mxGeometry x="462.5" y="585" width="155" height="105" as="geometry" />
        </mxCell>
        <mxCell id="v4-6-bHVS8jRS0BCCZuM-28" value="7" style="ellipse;whiteSpace=wrap;html=1;fontStyle=1;fontSize=42;strokeWidth=3;fillColor=#d5e8d4;strokeColor=#82b366;" vertex="1" parent="1">
          <mxGeometry x="710" y="583.75" width="157.5" height="106.25" as="geometry" />
        </mxCell>
        <mxCell id="v4-6-bHVS8jRS0BCCZuM-29" value="8" style="ellipse;whiteSpace=wrap;html=1;fontStyle=1;fontSize=42;strokeWidth=3;fillColor=#fff2cc;strokeColor=#d6b656;" vertex="1" parent="1">
          <mxGeometry x="940" y="586.25" width="160" height="105" as="geometry" />
        </mxCell>
        <mxCell id="v4-6-bHVS8jRS0BCCZuM-30" value="Branch network" style="ellipse;whiteSpace=wrap;html=1;fontStyle=1;fontSize=42;strokeWidth=3;fillColor=#dae8fc;strokeColor=#6c8ebf;" vertex="1" parent="1">
          <mxGeometry x="820" y="939" width="200" height="140" as="geometry" />
        </mxCell>
        <mxCell id="v4-6-bHVS8jRS0BCCZuM-31" value="Branch network" style="ellipse;whiteSpace=wrap;html=1;fontStyle=1;fontSize=42;strokeWidth=3;fillColor=#dae8fc;strokeColor=#6c8ebf;" vertex="1" parent="1">
          <mxGeometry x="310" y="939" width="200" height="140" as="geometry" />
        </mxCell>
        <mxCell id="v4-6-bHVS8jRS0BCCZuM-32" value="Branch network" style="ellipse;whiteSpace=wrap;html=1;fontStyle=1;fontSize=42;strokeWidth=3;fillColor=#dae8fc;strokeColor=#6c8ebf;" vertex="1" parent="1">
          <mxGeometry x="-179" y="939" width="200" height="140" as="geometry" />
        </mxCell>
        <mxCell id="v4-6-bHVS8jRS0BCCZuM-33" value="" style="endArrow=none;html=1;rounded=0;strokeWidth=9;strokeColor=#97D077;fontSize=42;" edge="1" parent="1">
          <mxGeometry width="50" height="50" relative="1" as="geometry">
            <mxPoint x="830" y="400" as="sourcePoint" />
            <mxPoint x="930" y="400" as="targetPoint" />
          </mxGeometry>
        </mxCell>
        <mxCell id="v4-6-bHVS8jRS0BCCZuM-34" value="" style="endArrow=none;html=1;rounded=0;strokeWidth=9;strokeColor=#FFB366;fontSize=42;" edge="1" parent="1">
          <mxGeometry width="50" height="50" relative="1" as="geometry">
            <mxPoint x="830" y="472" as="sourcePoint" />
            <mxPoint x="930" y="472" as="targetPoint" />
          </mxGeometry>
        </mxCell>
        <mxCell id="v4-6-bHVS8jRS0BCCZuM-35" value="Internet" style="text;html=1;strokeColor=#82b366;fillColor=#d5e8d4;align=center;verticalAlign=middle;whiteSpace=wrap;rounded=0;fontSize=28;fontStyle=1" vertex="1" parent="1">
          <mxGeometry x="950" y="380" width="130" height="40" as="geometry" />
        </mxCell>
        <mxCell id="v4-6-bHVS8jRS0BCCZuM-36" value="MPLS" style="text;html=1;strokeColor=#d6b656;fillColor=#fff2cc;align=center;verticalAlign=middle;whiteSpace=wrap;rounded=0;fontSize=28;fontStyle=1" vertex="1" parent="1">
          <mxGeometry x="950" y="452" width="130" height="40" as="geometry" />
        </mxCell>
        <mxCell id="v4-6-bHVS8jRS0BCCZuM-37" value="Headquarter network" style="ellipse;whiteSpace=wrap;html=1;fontStyle=1;fontSize=42;strokeWidth=3;fillColor=#dae8fc;strokeColor=#6c8ebf;" vertex="1" parent="1">
          <mxGeometry x="265" y="-75" width="310" height="180" as="geometry" />
        </mxCell>
        <mxCell id="v4-6-bHVS8jRS0BCCZuM-38" value="1" style="ellipse;whiteSpace=wrap;html=1;fontStyle=1;fontSize=42;strokeWidth=3;fillColor=#d5e8d4;strokeColor=#82b366;" vertex="1" parent="1">
          <mxGeometry x="205" y="360" width="160" height="110" as="geometry" />
        </mxCell>
        <mxCell id="v4-6-bHVS8jRS0BCCZuM-39" value="2" style="ellipse;whiteSpace=wrap;html=1;fontStyle=1;fontSize=42;strokeWidth=3;fillColor=#fff2cc;strokeColor=#d6b656;" vertex="1" parent="1">
          <mxGeometry x="460" y="360" width="160" height="110" as="geometry" />
        </mxCell>
        <mxCell id="v4-6-bHVS8jRS0BCCZuM-40" value="6" style="ellipse;whiteSpace=wrap;html=1;fontStyle=1;fontSize=42;strokeWidth=3;fillColor=#fff2cc;strokeColor=#d6b656;" vertex="1" parent="1">
          <mxGeometry x="462.5" y="585" width="155" height="105" as="geometry" />
        </mxCell>
        <mxCell id="v4-6-bHVS8jRS0BCCZuM-41" value="5" style="ellipse;whiteSpace=wrap;html=1;fontStyle=1;fontSize=42;strokeWidth=3;fillColor=#d5e8d4;strokeColor=#82b366;" vertex="1" parent="1">
          <mxGeometry x="200" y="585" width="160" height="105" as="geometry" />
        </mxCell>
        <mxCell id="v4-6-bHVS8jRS0BCCZuM-42" value="4" style="ellipse;whiteSpace=wrap;html=1;fontStyle=1;fontSize=42;strokeWidth=3;fillColor=#fff2cc;strokeColor=#d6b656;" vertex="1" parent="1">
          <mxGeometry x="-30" y="583.75" width="160" height="107.5" as="geometry" />
        </mxCell>
        <mxCell id="v4-6-bHVS8jRS0BCCZuM-43" value="3" style="ellipse;whiteSpace=wrap;html=1;fontStyle=1;fontSize=42;strokeWidth=3;fillColor=#d5e8d4;strokeColor=#82b366;" vertex="1" parent="1">
          <mxGeometry x="-260" y="585" width="160" height="105" as="geometry" />
        </mxCell>
        <mxCell id="v4-6-bHVS8jRS0BCCZuM-44" value="7" style="ellipse;whiteSpace=wrap;html=1;fontStyle=1;fontSize=42;strokeWidth=3;fillColor=#d5e8d4;strokeColor=#82b366;" vertex="1" parent="1">
          <mxGeometry x="710" y="583.75" width="157.5" height="106.25" as="geometry" />
        </mxCell>
        <mxCell id="v4-6-bHVS8jRS0BCCZuM-45" value="3&#39;" style="ellipse;whiteSpace=wrap;html=1;fontStyle=1;fontSize=42;strokeWidth=3;fillColor=#d5e8d4;strokeColor=#82b366;" vertex="1" parent="1">
          <mxGeometry x="-235" y="770" width="110" height="85" as="geometry" />
        </mxCell>
        <mxCell id="v4-6-bHVS8jRS0BCCZuM-46" value="4&#39;" style="ellipse;whiteSpace=wrap;html=1;fontStyle=1;fontSize=42;strokeWidth=3;fillColor=#fff2cc;strokeColor=#d6b656;" vertex="1" parent="1">
          <mxGeometry x="-5" y="770" width="110" height="85" as="geometry" />
        </mxCell>
        <mxCell id="v4-6-bHVS8jRS0BCCZuM-47" value="5&#39;" style="ellipse;whiteSpace=wrap;html=1;fontStyle=1;fontSize=42;strokeWidth=3;fillColor=#d5e8d4;strokeColor=#82b366;" vertex="1" parent="1">
          <mxGeometry x="225" y="770" width="110" height="85" as="geometry" />
        </mxCell>
        <mxCell id="v4-6-bHVS8jRS0BCCZuM-48" value="6&#39;" style="ellipse;whiteSpace=wrap;html=1;fontStyle=1;fontSize=42;strokeWidth=3;fillColor=#fff2cc;strokeColor=#d6b656;" vertex="1" parent="1">
          <mxGeometry x="485" y="770" width="110" height="85" as="geometry" />
        </mxCell>
        <mxCell id="v4-6-bHVS8jRS0BCCZuM-49" value="7&#39;" style="ellipse;whiteSpace=wrap;html=1;fontStyle=1;fontSize=42;strokeWidth=3;fillColor=#d5e8d4;strokeColor=#82b366;" vertex="1" parent="1">
          <mxGeometry x="733.75" y="770" width="110" height="85" as="geometry" />
        </mxCell>
        <mxCell id="v4-6-bHVS8jRS0BCCZuM-50" value="8&#39;" style="ellipse;whiteSpace=wrap;html=1;fontStyle=1;fontSize=42;strokeWidth=3;fillColor=#fff2cc;strokeColor=#d6b656;" vertex="1" parent="1">
          <mxGeometry x="965" y="770" width="110" height="85" as="geometry" />
        </mxCell>
        <mxCell id="v4-6-bHVS8jRS0BCCZuM-51" style="rounded=0;orthogonalLoop=1;jettySize=auto;html=1;exitX=0.5;exitY=0;exitDx=0;exitDy=0;entryX=0.5;entryY=1;entryDx=0;entryDy=0;strokeWidth=9;endArrow=none;endFill=0;strokeColor=#97D077;fontSize=42;" edge="1" parent="1" source="v4-6-bHVS8jRS0BCCZuM-57" target="v4-6-bHVS8jRS0BCCZuM-45">
          <mxGeometry relative="1" as="geometry">
            <mxPoint x="-170" y="700" as="sourcePoint" />
            <mxPoint x="-170" y="780" as="targetPoint" />
          </mxGeometry>
        </mxCell>
        <mxCell id="v4-6-bHVS8jRS0BCCZuM-52" style="rounded=0;orthogonalLoop=1;jettySize=auto;html=1;exitX=0.5;exitY=0;exitDx=0;exitDy=0;strokeWidth=9;endArrow=none;endFill=0;strokeColor=#FFB366;entryX=0.5;entryY=1;entryDx=0;entryDy=0;fontSize=42;" edge="1" parent="1" source="v4-6-bHVS8jRS0BCCZuM-57" target="v4-6-bHVS8jRS0BCCZuM-46">
          <mxGeometry relative="1" as="geometry">
            <mxPoint x="60" y="780" as="targetPoint" />
            <mxPoint x="60" y="701" as="sourcePoint" />
          </mxGeometry>
        </mxCell>
        <mxCell id="v4-6-bHVS8jRS0BCCZuM-53" style="rounded=0;orthogonalLoop=1;jettySize=auto;html=1;exitX=0.5;exitY=0;exitDx=0;exitDy=0;entryX=0.5;entryY=1;entryDx=0;entryDy=0;strokeWidth=9;endArrow=none;endFill=0;strokeColor=#97D077;fontSize=42;" edge="1" parent="1" source="v4-6-bHVS8jRS0BCCZuM-59" target="v4-6-bHVS8jRS0BCCZuM-47">
          <mxGeometry relative="1" as="geometry">
            <mxPoint x="400" y="889" as="sourcePoint" />
            <mxPoint x="299" y="855" as="targetPoint" />
          </mxGeometry>
        </mxCell>
        <mxCell id="v4-6-bHVS8jRS0BCCZuM-55" style="rounded=0;orthogonalLoop=1;jettySize=auto;html=1;exitX=0.5;exitY=0;exitDx=0;exitDy=0;entryX=0.5;entryY=1;entryDx=0;entryDy=0;strokeWidth=9;endArrow=none;endFill=0;strokeColor=#97D077;fontSize=42;" edge="1" parent="1" source="v4-6-bHVS8jRS0BCCZuM-58" target="v4-6-bHVS8jRS0BCCZuM-49">
          <mxGeometry relative="1" as="geometry">
            <mxPoint x="881" y="889" as="sourcePoint" />
            <mxPoint x="780" y="855" as="targetPoint" />
          </mxGeometry>
        </mxCell>
        <mxCell id="v4-6-bHVS8jRS0BCCZuM-56" style="rounded=0;orthogonalLoop=1;jettySize=auto;html=1;exitX=0.5;exitY=0;exitDx=0;exitDy=0;strokeWidth=9;endArrow=none;endFill=0;strokeColor=#FFB366;entryX=0.5;entryY=1;entryDx=0;entryDy=0;fontSize=42;" edge="1" parent="1" source="v4-6-bHVS8jRS0BCCZuM-58" target="v4-6-bHVS8jRS0BCCZuM-50">
          <mxGeometry relative="1" as="geometry">
            <mxPoint x="1010" y="855" as="targetPoint" />
            <mxPoint x="881" y="889" as="sourcePoint" />
          </mxGeometry>
        </mxCell>
        <mxCell id="v4-6-bHVS8jRS0BCCZuM-57" value="LB" style="rounded=0;whiteSpace=wrap;html=1;fontStyle=1;fontSize=42;strokeWidth=3;fillColor=#f8cecc;strokeColor=#b85450;" vertex="1" parent="1">
          <mxGeometry x="-119" y="889" width="80" height="50" as="geometry" />
        </mxCell>
        <mxCell id="v4-6-bHVS8jRS0BCCZuM-58" value="LB" style="rounded=0;whiteSpace=wrap;html=1;fontStyle=1;fontSize=42;strokeWidth=3;fillColor=#f8cecc;strokeColor=#b85450;" vertex="1" parent="1">
          <mxGeometry x="880" y="889" width="80" height="50" as="geometry" />
        </mxCell>
        <mxCell id="v4-6-bHVS8jRS0BCCZuM-59" value="LB" style="rounded=0;whiteSpace=wrap;html=1;fontStyle=1;fontSize=42;strokeWidth=3;fillColor=#f8cecc;strokeColor=#b85450;" vertex="1" parent="1">
          <mxGeometry x="374" y="889" width="80" height="50" as="geometry" />
        </mxCell>
        <mxCell id="v4-6-bHVS8jRS0BCCZuM-60" value="1&#39;" style="ellipse;whiteSpace=wrap;html=1;fontStyle=1;fontSize=42;strokeWidth=3;fillColor=#d5e8d4;strokeColor=#82b366;" vertex="1" parent="1">
          <mxGeometry x="230" y="215" width="110" height="85" as="geometry" />
        </mxCell>
        <mxCell id="v4-6-bHVS8jRS0BCCZuM-61" value="2&#39;" style="ellipse;whiteSpace=wrap;html=1;fontStyle=1;fontSize=42;strokeWidth=3;fillColor=#fff2cc;strokeColor=#d6b656;" vertex="1" parent="1">
          <mxGeometry x="485" y="215" width="110" height="85" as="geometry" />
        </mxCell>
        <mxCell id="v4-6-bHVS8jRS0BCCZuM-62" style="rounded=0;orthogonalLoop=1;jettySize=auto;html=1;exitX=0.5;exitY=0;exitDx=0;exitDy=0;entryX=0.5;entryY=1;entryDx=0;entryDy=0;strokeWidth=9;endArrow=none;endFill=0;strokeColor=#EA6B66;fontSize=42;" edge="1" parent="1" source="v4-6-bHVS8jRS0BCCZuM-38" target="v4-6-bHVS8jRS0BCCZuM-60">
          <mxGeometry relative="1" as="geometry">
            <mxPoint x="430" y="160" as="sourcePoint" />
            <mxPoint x="295" y="225" as="targetPoint" />
          </mxGeometry>
        </mxCell>
        <mxCell id="v4-6-bHVS8jRS0BCCZuM-63" style="rounded=0;orthogonalLoop=1;jettySize=auto;html=1;exitX=0.5;exitY=1;exitDx=0;exitDy=0;entryX=0.5;entryY=0;entryDx=0;entryDy=0;strokeWidth=9;endArrow=none;endFill=0;strokeColor=#EA6B66;fontSize=42;" edge="1" parent="1" source="v4-6-bHVS8jRS0BCCZuM-61" target="v4-6-bHVS8jRS0BCCZuM-39">
          <mxGeometry relative="1" as="geometry">
            <mxPoint x="430" y="160" as="sourcePoint" />
            <mxPoint x="550" y="225" as="targetPoint" />
          </mxGeometry>
        </mxCell>
        <mxCell id="v4-6-bHVS8jRS0BCCZuM-64" value="&lt;div style=&quot;font-size: 37px;&quot;&gt;Congested &lt;br style=&quot;font-size: 37px;&quot;&gt;&lt;/div&gt;&lt;div style=&quot;font-size: 37px;&quot;&gt;Link&lt;br style=&quot;font-size: 37px;&quot;&gt;&lt;/div&gt;" style="text;html=1;strokeColor=none;fillColor=none;align=center;verticalAlign=middle;whiteSpace=wrap;rounded=0;fontSize=37;fontColor=#EA6B66;" vertex="1" parent="1">
          <mxGeometry x="382" y="340" width="60" height="30" as="geometry" />
        </mxCell>
        <mxCell id="v4-6-bHVS8jRS0BCCZuM-65" value="Access Router" style="text;html=1;align=center;verticalAlign=middle;whiteSpace=wrap;rounded=0;fontSize=28;fontStyle=1" vertex="1" parent="1">
          <mxGeometry x="347" y="215" width="130" height="70" as="geometry" />
        </mxCell>
        <mxCell id="v4-6-bHVS8jRS0BCCZuM-66" value="&lt;font style=&quot;font-size: 40px;&quot;&gt;Overlay links&lt;/font&gt;" style="text;html=1;align=center;verticalAlign=middle;whiteSpace=wrap;rounded=0;fontSize=28;fontStyle=1" vertex="1" parent="1">
          <mxGeometry x="900" y="280" width="130" height="70" as="geometry" />
        </mxCell>
        <mxCell id="v4-6-bHVS8jRS0BCCZuM-68" value="&lt;font style=&quot;font-size: 40px;&quot;&gt;Local networks&lt;/font&gt;" style="text;html=1;align=center;verticalAlign=middle;whiteSpace=wrap;rounded=0;fontSize=28;fontStyle=1" vertex="1" parent="1">
          <mxGeometry x="100" y="900" width="130" height="70" as="geometry" />
        </mxCell>
        <mxCell id="v4-6-bHVS8jRS0BCCZuM-69" value="&lt;font style=&quot;font-size: 40px;&quot;&gt;Local networks&lt;/font&gt;" style="text;html=1;align=center;verticalAlign=middle;whiteSpace=wrap;rounded=0;fontSize=28;fontStyle=1" vertex="1" parent="1">
          <mxGeometry x="603.75" y="910" width="130" height="70" as="geometry" />
        </mxCell>
        <mxCell id="v4-6-bHVS8jRS0BCCZuM-70" value="Access Router" style="text;html=1;align=center;verticalAlign=middle;whiteSpace=wrap;rounded=0;fontSize=28;fontStyle=1" vertex="1" parent="1">
          <mxGeometry x="-125" y="785" width="130" height="70" as="geometry" />
        </mxCell>
        <mxCell id="v4-6-bHVS8jRS0BCCZuM-71" value="Access Router" style="text;html=1;align=center;verticalAlign=middle;whiteSpace=wrap;rounded=0;fontSize=28;fontStyle=1" vertex="1" parent="1">
          <mxGeometry x="345" y="777.5" width="130" height="70" as="geometry" />
        </mxCell>
        <mxCell id="v4-6-bHVS8jRS0BCCZuM-72" value="Access Router" style="text;html=1;align=center;verticalAlign=middle;whiteSpace=wrap;rounded=0;fontSize=28;fontStyle=1" vertex="1" parent="1">
          <mxGeometry x="835" y="777.5" width="130" height="70" as="geometry" />
        </mxCell>
        <mxCell id="v4-6-bHVS8jRS0BCCZuM-77" value="" style="rounded=0;orthogonalLoop=1;jettySize=auto;html=1;exitX=0.5;exitY=0;exitDx=0;exitDy=0;strokeWidth=9;endArrow=none;endFill=0;strokeColor=#FFB366;entryX=0.5;entryY=1;entryDx=0;entryDy=0;fontSize=42;" edge="1" parent="1" source="v4-6-bHVS8jRS0BCCZuM-59" target="v4-6-bHVS8jRS0BCCZuM-48">
          <mxGeometry relative="1" as="geometry">
            <mxPoint x="540" y="855" as="targetPoint" />
            <mxPoint x="414" y="889" as="sourcePoint" />
          </mxGeometry>
        </mxCell>
      </root>
    </mxGraphModel>
  </diagram>
</mxfile>
